<?xml version="1.0" encoding="utf-8"?>
<!-- Generator: Adobe Illustrator 23.0.1, SVG Export Plug-In . SVG Version: 6.00 Build 0)  -->
<svg version="1.1" xmlns="http://www.w3.org/2000/svg" xmlns:xlink="http://www.w3.org/1999/xlink" x="0px" y="0px"
	 viewBox="0 0 307.3 1070.1" style="enable-background:new 0 0 307.3 1070.1;" xml:space="preserve">
<style type="text/css">
	.st0{display:none;}
	.st1{display:inline;fill:#AAAAAA;}
	.st2{fill:#981D97;}
	.st3{fill:#FFFFFF;}
	.st4{display:inline;fill:#FFFFFF;}
	.st5{display:inline;fill:#941FA3;}
</style>
<g id="BG" class="st0">
	<rect x="1.2" class="st1" width="306.1" height="1070.2"/>
</g>
<g id="Layer_1">
	<g id="Circunferência">
		<path class="st2" d="M49,368.6c1.4,0.4,2.8-0.4,3.2-1.8c18.3-67.6,47.5-131.4,86.7-189.8c38.6-57.4,86-108.1,140.8-150.5
			c9-7,18.2-13.7,27.6-20.2V0c-10.4,7.2-20.7,14.6-30.8,22.4c-55.2,42.8-103,93.8-141.9,151.7c-39.5,58.8-69,123.2-87.4,191.3
			C46.8,366.8,47.7,368.2,49,368.6z"/>
		<path class="st2" d="M307.3,1063.8c-9.9-6.9-19.6-14-29.2-21.5c-55-42.8-102.4-93.9-140.9-151.8C98,831.7,69.1,767.3,51.1,699.3
			c-0.4-1.4-1.8-2.2-3.2-1.8s-2.2,1.8-1.8,3.2c18.1,68.6,47.3,133.5,86.8,192.8c38.8,58.4,86.6,109.8,142,153
			c10.6,8.2,21.4,16.1,32.4,23.7V1063.8z"/>
	</g>
	<g id="Ulife">
		<path class="st3" d="M117.4,589.6c0.1,1-0.6,1.9-1.6,2c-0.1,0-0.3,0-0.4,0h-5.9c-1.2,0-1.9-0.7-1.9-2V475.4
			c-0.1-0.9,0.5-1.7,1.4-1.9c0.2,0,0.3,0,0.5,0h5.9c1.3,0,2,0.6,2,1.9V589.6z"/>
		<path class="st3" d="M154.8,490.9c0.1,1-0.6,1.9-1.6,2c-0.1,0-0.3,0-0.4,0H147c-1.2,0-1.9-0.7-1.9-2V477c0-1.3,0.6-2,1.9-2h5.9
			c1-0.1,1.9,0.6,2,1.6c0,0.1,0,0.3,0,0.4V490.9z M154.8,589.6c0.1,1-0.6,1.9-1.6,2c-0.1,0-0.3,0-0.4,0H147c-1.2,0-1.9-0.7-1.9-2
			v-82.1c0-1.5,0.6-2.2,1.9-2.2h5.9c1.4,0,2,0.7,2,2.2V589.6z"/>
		<path class="st3" d="M218.7,505.2c1.2,0,1.9,0.7,1.9,2.2v4.8c0,1.4-0.6,2-1.9,2h-21.6v75.4c0,1.3-0.6,2-1.9,2h-5.9
			c-1,0.1-1.9-0.6-2-1.6c0-0.1,0-0.3,0-0.4v-75.4h-12.9c-1,0.1-1.9-0.6-2-1.6c0-0.1,0-0.3,0-0.4v-4.7c0-1.5,0.7-2.2,2-2.2h12.9v-8.8
			c0-7.9,1.9-13.9,5.7-17.9s9.3-6.2,16.5-6.2c3.8-0.1,7.6,0.5,11.2,1.7c0.9,0.3,1.4,1.1,1.4,2l-0.2,4.6c0,1.5-0.7,2-2,1.5
			c-3-0.7-6.1-1-9.1-1c-9,0-13.5,5.2-13.6,15.6v8.4L218.7,505.2L218.7,505.2z"/>
		<path class="st3" d="M296.6,579.5c1.2-0.7,2.2-0.3,2.9,1.2l1.7,4.4c0.3,1-0.1,1.8-1.4,2.4c-8.3,4.3-17.5,6.4-26.8,6.3
			c-13.4,0-23.8-4-31.3-12.1c-7.5-8.1-11.3-19-11.3-33.1c0-14.3,3.4-25.5,10.3-33.4c6.9-7.9,16.3-11.9,28.5-11.9
			c11.9,0,20.9,3.7,27.3,11.2s9.7,17.3,9.7,29.6v6.9c0,1.3-0.7,2-2.2,2h-63.8c0.5,9.9,3.6,17.7,9.4,23.5c5.8,5.8,13.8,8.7,23.9,8.7
			C281.6,585.1,289.6,583.2,296.6,579.5 M240.2,544.6h56.4v-1.3c0-9.6-2.3-17.1-6.9-22.9c-4.6-5.8-11.5-8.6-20.4-8.6
			C250.9,511.8,241.1,522.7,240.2,544.6"/>
		<path class="st2" d="M16.5,450.1v5.3c0,5.1,2.4,8.2,6.4,10.5l21.2,12.5l21.6-12.6c3.8-2.2,5.8-5.5,5.8-10.4v-5.3
			c0-0.7-0.5-1.2-1.2-1.2c-0.2,0-0.4,0-0.5,0.1l-25.5,13.3l-26-13.3c-0.2-0.1-0.4-0.1-0.5-0.1C17.1,448.9,16.5,449.4,16.5,450.1
			L16.5,450.1"/>
		<path class="st2" d="M69.8,491.9c-1.7,0-3,1.4-3.1,3v59.9c0,12.7-4.2,19.6-22.6,19.7s-22.6-7.1-22.6-19.7v-48.9
			c-0.1-6.2-4.2-11.7-10.2-13.5c-1.3-0.4-2.6-0.6-3.9-0.6H4.2c-1.7,0-3,1.4-3,3v59.9c0,24.7,13.4,39,42.8,39h0.2
			c29.5-0.1,42.8-14.3,42.8-39v-48.8c0-7.8-6.4-14.1-14.1-14c0,0,0,0-0.1,0L69.8,491.9L69.8,491.9z"/>
	</g>
	<g id="Unisociesc_1_" class="st0">
		<path class="st4" d="M119.9,615.8c0-1.8-1.3-3.4-2.9-3.9c-0.4-0.1-0.7-0.2-1.1-0.2h-0.9c-0.5,0-0.9,0.4-0.9,0.9v21.7
			c0,1.8,1.3,3.4,2.9,3.9c0.4,0.1,0.7,0.2,1.1,0.2h0.9c0.5,0,0.9-0.4,0.9-0.9V615.8z"/>
		<path class="st4" d="M207.5,615.8c0-1.8-1.3-3.4-2.9-3.9c-0.4-0.1-0.7-0.2-1.1-0.2h-0.9c-0.5,0-0.9,0.4-0.9,0.9v21.7
			c0,1.8,1.3,3.4,2.9,3.9c0.4,0.1,0.7,0.2,1.1,0.2h0.9c0.5,0,0.9-0.4,0.9-0.9V615.8z"/>
		<path class="st4" d="M57.5,627.9c0,6.6,3.6,10.5,11.4,10.5h0.1c7.9,0,11.4-3.9,11.4-10.5v-12.4c0-2.1-1.7-3.8-3.8-3.8h-0.9
			c-0.4,0-0.8,0.4-0.8,0.8l0,15.3c0,3.4-1.1,5.3-6,5.3c-4.9,0-6-1.9-6-5.3l0-12.4c0-1.7-1.2-3.1-2.7-3.6c-0.7-0.2-1.9-0.2-1.9-0.2
			c-0.4,0-0.8,0.4-0.8,0.8V627.9z"/>
		<path class="st4" d="M108.6,621.4c0-6.6-3.6-10.5-11.4-10.5h-0.1c-7.9,0-11.4,3.9-11.4,10.5v13.1c0,2.1,1.7,3.8,3.8,3.8h0.9
			c0.4,0,0.8-0.4,0.8-0.8l0-16.1c0-3.4,1.1-5.3,6-5.3c4.9,0,6,1.9,6,5.3l0,13.2c0,1.7,1.2,3.1,2.7,3.6c0.7,0.2,1.9,0.2,1.9,0.2
			c0.4,0,0.8-0.4,0.8-0.8V621.4z"/>
		<path class="st4" d="M124.7,618.2c0,4.1,2,5.8,5.3,7.2l5.8,2.5c2.6,1.2,3.4,1.8,3.4,3.2c0,1.7-1.5,2.3-5,2.3c-0.2,0-1.6,0-1.6,0
			c-4-0.2-7.3-1.4-7.3-1.4c-0.1,0-0.5-0.1-0.7,0.1c-0.9,0.9,0.4,5.4,2.5,5.8c0,0,1.4,0.2,2.4,0.3c0,0,3.8,0.3,4.3,0.3
			c7.6,0,10.9-2.3,10.9-7.4c0-4.2-2.2-6-5.8-7.5l-6.2-2.6c-1.8-0.8-2.5-1.4-2.5-2.7c0-1.5,1.1-2.2,4.7-2.2c2.2,0,4.2,0.3,5.6,0.7
			c0.4,0.1,1.9,0.7,2.4,0.4c1-0.8-0.2-5-2.3-5.5c-0.5-0.1-3-0.6-5.6-0.6C127.8,611,124.7,613.3,124.7,618.2"/>
		<path class="st4" d="M241,618.2c0,4.1,2,5.8,5.3,7.2l5.8,2.5c2.6,1.2,3.4,1.8,3.4,3.2c0,1.7-1.5,2.3-5,2.3c-0.2,0-1.6,0-1.6,0
			c-4-0.2-7.3-1.4-7.3-1.4c-0.1,0-0.5-0.1-0.7,0.1c-0.9,0.9,0.4,5.4,2.5,5.8c0,0,1.4,0.2,2.4,0.3c0,0,3.8,0.3,4.3,0.3
			c7.6,0,10.9-2.3,10.9-7.4c0-4.2-2.2-6-5.8-7.5l-6.2-2.6c-1.8-0.8-2.5-1.4-2.5-2.7c0-1.5,1.1-2.2,4.7-2.2c2.2,0,4.2,0.3,5.6,0.7
			c0.4,0.1,1.9,0.7,2.4,0.4c1-0.8-0.2-5-2.3-5.5c-0.5-0.1-3-0.6-5.6-0.6C244.1,611,241,613.3,241,618.2"/>
		<path class="st4" d="M167.6,622.4c0-4.4-1.5-6.4-6.7-6.4c-5.2,0-6.8,1.9-6.8,6.4v4.5c0,4.4,1.5,6.3,6.8,6.3c5.2,0,6.7-1.9,6.7-6.3
			V622.4z M148.5,626.9v-4.5c0-7.4,4-11.4,12.4-11.4c8.6,0,12.3,3.8,12.3,11.4v4.5c0,7.4-4,11.4-12.3,11.4
			C152.3,638.4,148.5,634.6,148.5,626.9"/>
		<path class="st4" d="M194.6,632.7c-0.7,0.2-2.6,0.6-4.7,0.7c-5.1,0-6.7-2-6.7-6.4v-4.6c0-4.4,1.6-6.3,6.7-6.4
			c2.2,0.1,4,0.5,4.7,0.7c0.7,0.2,1.1,0.2,1.4,0.1c0.9-0.8-0.4-5-2.5-5.4v0c-2.1-0.5-3.4-0.4-3.4-0.4c-8.3,0-12.4,4-12.4,11.5v4.6
			c0,7.4,4,11.5,12.4,11.5c0,0,1.4,0.1,3.4-0.4v0c2.1-0.4,3.5-4.6,2.5-5.4C195.7,632.4,195.2,632.5,194.6,632.7"/>
		<path class="st4" d="M218.4,622.3H231v-1.3c0-3.5-2.1-5.3-6.4-5.3c-4.1,0-6.2,1.8-6.2,5.3V622.3z M228.9,638.3
			c-0.9,0.1-1.9,0.1-2.8,0.1c-9,0-13.2-3.3-13.2-11.4v-4.6c0-7.7,4-11.5,12-11.5c7.5,0,11.4,3.8,11.4,11c0,0.8-0.1,1.5-0.1,2.3
			c-0.2,2-0.8,2.4-2.7,2.4h-15v1.2c0,3.9,2.3,5.4,7.7,5.4c0.9,0,1.8,0,2.7-0.1c0,0,2.8-0.2,4.7-0.7c0.7-0.2,1.1-0.2,1.4-0.1
			c0.9,0.8-0.4,5-2.5,5.4C230.3,638.3,228.9,638.3,228.9,638.3"/>
		<path class="st4" d="M281.9,632.7c-0.7,0.2-2.6,0.6-4.7,0.7c-5.1,0-6.7-2-6.7-6.4v-4.6c0-4.4,1.6-6.3,6.7-6.4
			c2.2,0.1,4,0.5,4.7,0.7c0.7,0.2,1.1,0.2,1.4,0.1c0.9-0.8-0.4-4.9-2.5-5.4c-2.1-0.5-3.4-0.4-3.4-0.4c-8.3,0-12.4,4-12.4,11.5v4.6
			c0,7.4,4,11.5,12.4,11.5c0,0,1.4,0.1,3.4-0.4v0c2.1-0.4,3.5-4.6,2.5-5.4C283,632.4,282.5,632.5,281.9,632.7"/>
		<path class="st4" d="M293,625.1h-2.7c-0.5,0-0.7-0.5-0.5-0.9l6.7-13.2l-6.7-12.9c-0.2-0.4,0.1-0.9,0.5-0.9h2.7
			c2.5,0,4.1,1,5.2,2.9l6.3,10.9l-6.3,10.9C297.1,623.9,295.6,625.1,293,625.1"/>
		<path class="st4" d="M117.2,579.4c0,1.4-0.7,2-2,2h-5.9c-1.2,0-1.9-0.7-1.9-2V464.7c0-1.2,0.6-1.9,1.9-1.9h5.9c1.4,0,2,0.6,2,1.9
			V579.4z"/>
		<path class="st4" d="M154.7,579.4c0,1.4-0.7,2-2,2h-5.9c-1.2,0-1.9-0.7-1.9-2v-82.6c0-1.5,0.6-2.2,1.9-2.2h5.9c1.4,0,2,0.7,2,2.2
			V579.4z M154.7,480.2c0,1.4-0.7,2-2,2h-5.9c-1.2,0-1.9-0.7-1.9-2v-14c0-1.4,0.6-2,1.9-2h5.9c1.4,0,2,0.7,2,2V480.2z"/>
		<path class="st4" d="M218.5,494.6c1.2,0,1.9,0.7,1.9,2.2v4.7c0,1.4-0.6,2-1.9,2h-21.6v75.8c0,1.4-0.6,2-1.9,2h-5.9
			c-1.4,0-2-0.7-2-2v-75.8h-12.8c-1.4,0-2-0.7-2-2v-4.7c0-1.5,0.7-2.2,2-2.2h12.8v-8.8c0-7.9,1.9-13.9,5.7-18
			c3.8-4.1,9.3-6.2,16.5-6.2c4.4,0,8.1,0.6,11.1,1.7c0.9,0.3,1.4,1,1.4,2l-0.2,4.6c0,1.5-0.7,2-2,1.5c-2.7-0.7-5.7-1-9.1-1
			c-9,0-13.5,5.2-13.5,15.7v8.5H218.5z"/>
		<path class="st4" d="M240,534.2h56.4v-1.4c0-9.6-2.3-17.3-6.9-23c-4.6-5.8-11.4-8.6-20.4-8.6C250.6,501.2,240.9,512.2,240,534.2
			 M296.4,569.2c1.2-0.7,2.2-0.3,2.9,1.2l1.7,4.4c0.3,1-0.1,1.8-1.3,2.4c-7.9,4.2-16.8,6.3-26.8,6.3c-13.4,0-23.8-4-31.3-12.1
			c-7.5-8.1-11.2-19.2-11.2-33.3c0-14.4,3.4-25.6,10.3-33.6c6.9-8,16.4-11.9,28.5-11.9c11.8,0,20.9,3.8,27.3,11.3
			c6.4,7.5,9.6,17.4,9.6,29.7v6.9c0,1.4-0.7,2-2.2,2H240c0.5,9.9,3.6,17.8,9.4,23.6c5.8,5.8,13.8,8.7,23.9,8.7
			C281.9,574.8,289.6,573,296.4,569.2"/>
		<path class="st5" d="M16.4,439.2v5.3c0,5.1,2.4,8.2,6.4,10.6L44,467.5l21.6-12.6c3.8-2.2,5.8-5.5,5.8-10.4v-5.3
			c0-0.9-0.9-1.5-1.7-1.1l-25.5,13.3l-26.1-13.3c-0.2-0.1-0.4-0.1-0.5-0.1C17,438,16.4,438.5,16.4,439.2"/>
		<path class="st5" d="M69.5,481.2c-1.7,0-3,1.4-3,3.1l0,60.2c0,12.7-4.1,19.8-22.6,19.8c-18.5,0-22.6-7.1-22.6-19.8l0-49.2
			c0-6.4-4.3-11.8-10.2-13.5c-1.3-0.4-2.6-0.6-3.9-0.6H4c-1.7,0-3,1.4-3,3.1v60.2c0,24.8,13.4,39.1,42.8,39.2v0h0.1H44v0
			c29.5-0.1,42.8-14.4,42.8-39.2v-49.1c0-7.8-6.3-14.1-14.1-14.1H69.5z"/>
	</g>
	<g id="Una_1_" class="st0">
		<path class="st4" d="M298.7,632.4c0,4.1-2.8,4.8-6.7,4.8c-3,0-5.8-0.6-5.8-4.2c0-3.1,1.9-4.3,6-4.3h6.5V632.4z M291.4,610.9
			c-1.9,0-3.2,0.1-4.2,0.2c-2.4,0.3-4.3,4.8-3.2,5.7c0.3,0.2,0.8,0.2,1.6,0c1.2-0.2,3.3-0.6,6.2-0.6c4.2,0,7,0.9,7,4.6v3h-6.5
			c-7.4,0-12,2.4-12,9.2c0,6.5,4.3,9.4,12,9.4c8.7,0,12.6-3,12.6-9.8v-11.8C304.7,613.3,299.4,610.9,291.4,610.9"/>
		<path class="st4" d="M215.7,630.3c0,7.6,4.1,12,13.2,12h0.1c9,0,13.2-4.4,13.2-12v-14.2c0-2.4-1.9-4.3-4.3-4.3h-1
			c-0.5,0-0.9,0.4-0.9,0.9l0,17.6c0,3.9-1.3,6.1-6.9,6.1c-5.7,0-6.9-2.2-6.9-6.1l0-14.2c0-2-1.3-3.6-3.1-4.1
			c-0.8-0.2-2.2-0.2-2.2-0.2c-0.5,0-0.9,0.4-0.9,0.9V630.3z"/>
		<path class="st4" d="M274.5,623c0-7.6-4.1-12-13.2-12h-0.1c-9,0-13.2,4.4-13.2,12V638c0,2.4,1.9,4.3,4.3,4.3h1
			c0.5,0,0.9-0.4,0.9-0.9l0-18.5c0-3.9,1.3-6.1,6.9-6.1c5.7,0,6.9,2.2,6.9,6.1l0,15.1c0,2,1.3,3.6,3.1,4.1c0.8,0.2,2.2,0.2,2.2,0.2
			c0.5,0,0.9-0.4,0.9-0.9V623z"/>
		<path class="st4" d="M192,613.1l7.1,13.6c0.1,0.2,0.1,0.4,0,0.6l-7.1,13.9h0h2.8c2.3,0,3.8-0.9,5.1-3.1l6.4-11.1l-6.5-11.1
			c-1.1-1.9-2.7-2.8-5-2.8H192z M194.9,642.3H192c-0.4,0-0.8-0.2-1.1-0.6c-0.2-0.4-0.2-0.8,0-1.2l6.9-13.6l-6.9-13.3
			c-0.2-0.4-0.2-0.8,0-1.2c0.2-0.4,0.6-0.6,1.1-0.6h2.8c2.8,0,4.7,1.1,6,3.4l6.7,11.4c0.1,0.2,0.1,0.4,0,0.6l-6.6,11.4
			C199.5,641.2,197.6,642.3,194.9,642.3"/>
		<path class="st4" d="M117.2,579c0,1.4-0.7,2-2,2h-5.9c-1.2,0-1.9-0.7-1.9-2V464.6c0-1.2,0.6-1.9,1.9-1.9h5.9c1.4,0,2,0.6,2,1.9
			V579z"/>
		<path class="st4" d="M154.7,579c0,1.4-0.7,2-2,2h-5.9c-1.2,0-1.9-0.7-1.9-2v-82.4c0-1.5,0.6-2.2,1.9-2.2h5.9c1.4,0,2,0.7,2,2.2
			V579z M154.7,480.1c0,1.4-0.7,2-2,2h-5.9c-1.2,0-1.9-0.7-1.9-2v-14c0-1.4,0.6-2,1.9-2h5.9c1.4,0,2,0.7,2,2V480.1z"/>
		<path class="st4" d="M218.5,494.5c1.2,0,1.9,0.7,1.9,2.2v4.7c0,1.4-0.6,2-1.9,2h-21.6V579c0,1.4-0.6,2-1.9,2h-5.9
			c-1.4,0-2-0.7-2-2v-75.6h-12.8c-1.4,0-2-0.7-2-2v-4.7c0-1.5,0.7-2.2,2-2.2h12.8v-8.8c0-7.9,1.9-13.9,5.7-18
			c3.8-4.1,9.3-6.2,16.5-6.2c4.4,0,8.1,0.6,11.1,1.7c0.9,0.3,1.4,1,1.4,2l-0.2,4.6c0,1.5-0.7,2-2,1.5c-2.7-0.7-5.7-1-9.1-1
			c-9,0-13.5,5.2-13.5,15.7v8.4H218.5z"/>
		<path class="st4" d="M240,533.9h56.4v-1.4c0-9.6-2.3-17.2-6.9-23c-4.6-5.7-11.4-8.6-20.4-8.6C250.6,501,240.9,512,240,533.9
			 M296.4,568.9c1.2-0.7,2.2-0.3,2.9,1.2l1.7,4.4c0.3,1-0.1,1.8-1.3,2.4c-7.9,4.2-16.8,6.2-26.8,6.2c-13.4,0-23.8-4-31.3-12.1
			c-7.5-8-11.2-19.1-11.2-33.2c0-14.4,3.4-25.6,10.3-33.5c6.9-7.9,16.4-11.9,28.5-11.9c11.8,0,20.9,3.7,27.3,11.2
			c6.4,7.5,9.6,17.4,9.6,29.6v6.9c0,1.3-0.7,2-2.2,2H240c0.5,9.9,3.6,17.7,9.4,23.5c5.8,5.8,13.8,8.7,23.9,8.7
			C281.9,574.5,289.6,572.6,296.4,568.9"/>
		<path class="st5" d="M16.4,439.2v5.3c0,5.1,2.4,8.2,6.4,10.5L44,467.4l21.6-12.5c3.8-2.2,5.8-5.5,5.8-10.4v-5.3
			c0-0.9-0.9-1.5-1.7-1.1l-25.5,13.3l-26.1-13.3c-0.2-0.1-0.4-0.1-0.5-0.1C17,438,16.4,438.5,16.4,439.2"/>
		<path class="st5" d="M69.5,481.1c-1.7,0-3,1.4-3,3l0,60c0,12.7-4.1,19.7-22.6,19.7c-18.5,0-22.6-7.1-22.6-19.7l0-49
			c0-6.4-4.3-11.7-10.2-13.5c-1.3-0.4-2.6-0.6-3.9-0.6H4c-1.7,0-3,1.4-3,3v60c0,24.7,13.4,39,42.8,39.1v0h0.1H44v0
			c29.5-0.1,42.8-14.4,42.8-39.1v-49c0-7.8-6.3-14.1-14.1-14.1H69.5z"/>
	</g>
	<g id="São_Judas_1_" class="st0">
		<path class="st4" d="M117.2,579c0,1.4-0.7,2-2,2h-5.9c-1.2,0-1.9-0.7-1.9-2V464.6c0-1.2,0.6-1.9,1.9-1.9h5.9c1.4,0,2,0.6,2,1.9
			V579z"/>
		<path class="st4" d="M154.7,579c0,1.4-0.7,2-2,2h-5.9c-1.2,0-1.9-0.7-1.9-2v-82.4c0-1.5,0.6-2.2,1.9-2.2h5.9c1.4,0,2,0.7,2,2.2
			V579z M154.7,480.1c0,1.4-0.7,2-2,2h-5.9c-1.2,0-1.9-0.7-1.9-2v-14c0-1.4,0.6-2,1.9-2h5.9c1.4,0,2,0.7,2,2V480.1z"/>
		<path class="st4" d="M218.5,494.5c1.2,0,1.9,0.7,1.9,2.2v4.7c0,1.4-0.6,2-1.9,2h-21.6V579c0,1.4-0.6,2-1.9,2h-5.9
			c-1.4,0-2-0.7-2-2v-75.6h-12.8c-1.3,0-2-0.7-2-2v-4.7c0-1.5,0.7-2.2,2-2.2h12.8v-8.8c0-7.9,1.9-13.9,5.7-18
			c3.8-4.1,9.3-6.2,16.5-6.2c4.4,0,8.1,0.6,11.1,1.7c0.9,0.3,1.4,1,1.4,2l-0.2,4.6c0,1.5-0.7,2-2,1.5c-2.7-0.7-5.7-1-9.1-1
			c-9,0-13.5,5.2-13.5,15.7v8.4H218.5z"/>
		<path class="st4" d="M240,533.9h56.4v-1.4c0-9.6-2.3-17.2-6.9-23c-4.6-5.7-11.4-8.6-20.4-8.6C250.6,501,240.9,512,240,533.9
			 M296.4,568.9c1.2-0.7,2.2-0.3,2.9,1.2l1.7,4.4c0.3,1-0.1,1.8-1.4,2.4c-7.9,4.2-16.8,6.2-26.8,6.2c-13.4,0-23.8-4-31.3-12.1
			c-7.5-8-11.2-19.1-11.2-33.2c0-14.4,3.4-25.6,10.3-33.5c6.9-7.9,16.4-11.9,28.5-11.9c11.8,0,20.9,3.7,27.3,11.2
			c6.4,7.5,9.6,17.4,9.6,29.6v6.9c0,1.3-0.7,2-2.2,2H240c0.5,9.9,3.6,17.7,9.4,23.5c5.8,5.8,13.8,8.7,23.9,8.7
			C281.9,574.5,289.6,572.6,296.4,568.9"/>
		<path class="st5" d="M16.4,439.2v5.3c0,5.1,2.4,8.2,6.4,10.5L44,467.4l21.6-12.5c3.8-2.2,5.8-5.5,5.8-10.4v-5.3
			c0-0.9-0.9-1.5-1.7-1.1l-25.5,13.3l-26.1-13.3c-0.2-0.1-0.4-0.1-0.5-0.1C17,438,16.4,438.5,16.4,439.2"/>
		<path class="st5" d="M69.5,481.1c-1.7,0-3,1.4-3,3l0,60c0,12.7-4.1,19.7-22.6,19.7c-18.5,0-22.6-7.1-22.6-19.7l0-49
			c0-6.4-4.3-11.7-10.2-13.5c-1.3-0.4-2.6-0.6-3.9-0.6H4c-1.7,0-3,1.4-3,3v60c0,24.7,13.4,39,42.8,39.1v0h0.1H44v0
			c29.5-0.1,42.8-14.4,42.8-39.1v-49c0-7.8-6.3-14.1-14.1-14.1H69.5z"/>
		<path class="st4" d="M293.5,624.5h-2.8c-0.5,0-0.8-0.5-0.6-0.9l7-13.6l-7-13.3c-0.2-0.4,0.1-0.9,0.6-0.9h2.8c2.6,0,4.3,1,5.5,3
			l6.6,11.1l-6.5,11.1C297.8,623.3,296.2,624.5,293.5,624.5"/>
		<path class="st4" d="M252.1,629.6c0,3.8-2.6,4.3-6.2,4.3c-2.8,0-5.4-0.6-5.4-3.8c0-2.8,1.8-3.9,5.5-3.9h6V629.6z M245.4,610.1
			c-1.8,0-3,0.1-3.9,0.2c-2.2,0.3-3.9,4.3-3,5.1c0.3,0.2,0.8,0.2,1.5,0c1.1-0.2,3.1-0.5,5.7-0.5c3.9,0,6.4,0.8,6.4,4.2v2.7h-6
			c-6.8,0-11.1,2.2-11.1,8.3c0,5.9,4,8.5,11.1,8.5c8.1,0,11.6-2.8,11.6-8.8v-10.7C257.7,612.2,252.7,610.1,245.4,610.1"/>
		<path class="st4" d="M122.7,629.6c0,3.8-2.6,4.3-6.2,4.3c-2.8,0-5.4-0.6-5.4-3.8c0-2.8,1.8-3.9,5.5-3.9h6V629.6z M115.9,610
			c-1.8,0-3,0.1-3.9,0.2c-2.2,0.3-3.9,4.3-3,5.1c0.3,0.2,0.8,0.2,1.5,0c1.1-0.2,3.1-0.5,5.7-0.5c3.9,0,6.4,0.8,6.4,4.2v2.7h-6
			c-6.8,0-11.1,2.2-11.1,8.4c0,5.9,4,8.5,11.1,8.5c8.1,0,11.6-2.8,11.6-8.9v-10.8C128.3,612.2,123.3,610,115.9,610"/>
		<path class="st4" d="M114,602.1c-1.5,0-2.8,1-3.2,2.4c-0.1,0.5-0.1,1.7-0.1,1.7c0,0.4,0.3,0.7,0.7,0.7h11.2c1.5,0,2.8-1,3.2-2.4
			c0.2-0.7,0.1-1.7,0.1-1.7c0-0.4-0.3-0.7-0.7-0.7H114z"/>
		<path class="st4" d="M176.1,628c0,6.8,3.7,10.7,12,10.7h0.1c8.2,0,12-3.9,12-10.7v-13.5c0-2.1-1.8-3.9-3.9-3.9h-0.9
			c-0.5,0-0.9,0.4-0.9,0.8l0,16.5c0,3.5-1.2,5.4-6.3,5.4c-5.2,0-6.3-1.9-6.3-5.4l0-13.5c0-1.7-1.2-3.2-2.8-3.7c-0.7-0.2-2-0.2-2-0.2
			c-0.5,0-0.9,0.4-0.9,0.8V628z"/>
		<path class="st4" d="M169.5,610.6c0,0-1-0.1-2.1,0.2c-1.7,0.4-3,1.9-3,3.7l0,14.9c0,7.3-2.6,9.9-4.4,11.5
			c-0.5,0.4-1.3,1.1-1.3,1.1c-0.3,0.3-0.1,0.7,0.3,1l0.7,0.6c0.3,0.2,0.6,0.4,1,0.6c1.6,0.7,3.6,0.3,4.8-1c0,0,1.1-1.1,1.5-1.8
			c1.9-2.7,3.3-6.3,3.3-12.3v-14.4v-3.1C170.4,611,170,610.6,169.5,610.6"/>
		<path class="st4" d="M153,622c0-4.6-1.6-6.6-7-6.6c-5.5,0-7.2,2-7.2,6.6v4.8c0,4.6,1.6,6.6,7.2,6.6c5.5,0,7-1.9,7-6.6V622z
			 M133,626.8V622c0-7.7,4.2-12,13-12c9,0,12.8,4,12.8,12v4.8c0,7.7-4.2,12-12.8,12C137,638.7,133,634.7,133,626.8"/>
		<path class="st4" d="M217.7,633.4c-5.6,0-7-1.9-7-6.6V622c0-4.6,1.6-6.6,7-6.6c5.4,0,7.1,2,7.2,6.6v1.5v0v3.3
			C224.9,631.4,223.3,633.4,217.7,633.4 M230.6,600.2c0-0.5-0.4-0.8-0.9-0.8c0,0-1.1-0.1-2,0.2c-1.6,0.5-2.9,2-2.9,3.7v10.4
			c-1.5-2.4-4.3-3.6-8.2-3.6c-7.8,0-11.8,4-11.8,12.1v4.8c0,7.9,4.3,11.8,12.9,11.8c8.1,0,12.9-3.9,12.9-11.8v-6.5v0V600.2z"/>
		<path class="st4" d="M80.7,617.6c0,4.3,2.1,6,5.6,7.5l6.1,2.7c2.8,1.2,3.6,1.9,3.6,3.3c0,1.8-1.5,2.4-5.2,2.4c-0.2,0-1.7,0-1.7,0
			c-4.2-0.2-7.7-1.5-7.7-1.5c-0.1,0-0.5-0.1-0.7,0.1c-1,0.9,0.4,5.6,2.6,6.1c0,0,1.4,0.3,2.5,0.4c0,0,4,0.3,4.5,0.3
			c8,0,11.4-2.4,11.4-7.7c0-4.4-2.3-6.3-6-7.8l-6.5-2.8c-1.9-0.8-2.6-1.5-2.6-2.8c0-1.6,1.2-2.3,5-2.3c2.3,0,4.4,0.3,5.9,0.7
			c0.4,0.1,2,0.8,2.5,0.4c1-0.8-0.3-5.2-2.5-5.8c-0.5-0.1-3.2-0.6-5.8-0.6C83.9,610.1,80.7,612.5,80.7,617.6"/>
		<path class="st4" d="M262.8,617.6c0,4.3,2.1,6,5.6,7.5l6.1,2.7c2.8,1.2,3.6,1.9,3.6,3.3c0,1.8-1.5,2.4-5.2,2.4c-0.2,0-1.7,0-1.7,0
			c-4.2-0.2-7.7-1.5-7.7-1.5c-0.1,0-0.5-0.1-0.7,0.1c-1,0.9,0.4,5.6,2.6,6.1c0,0,1.4,0.3,2.5,0.4c0,0,4,0.2,4.5,0.2
			c8,0,11.4-2.4,11.4-7.7c0-4.4-2.3-6.3-6-7.8l-6.5-2.8c-1.9-0.8-2.6-1.5-2.6-2.8c0-1.6,1.2-2.3,5-2.3c2.3,0,4.4,0.3,5.9,0.7
			c0.4,0.1,2,0.8,2.5,0.4c1-0.8-0.3-5.2-2.5-5.8c-0.5-0.1-3.2-0.6-5.8-0.6C266,610.1,262.8,612.5,262.8,617.6"/>
	</g>
	<g id="Unibh_1_" class="st0">
		<path class="st4" d="M117.2,579c0,1.4-0.7,2-2,2h-5.9c-1.2,0-1.9-0.7-1.9-2V464.6c0-1.2,0.6-1.9,1.9-1.9h5.9c1.4,0,2,0.6,2,1.9
			V579z"/>
		<path class="st4" d="M154.7,579c0,1.4-0.7,2-2,2h-5.9c-1.2,0-1.9-0.7-1.9-2v-82.4c0-1.5,0.6-2.2,1.9-2.2h5.9c1.4,0,2,0.7,2,2.2
			V579z M154.7,480.1c0,1.4-0.7,2-2,2h-5.9c-1.2,0-1.9-0.7-1.9-2v-14c0-1.4,0.6-2,1.9-2h5.9c1.4,0,2,0.7,2,2V480.1z"/>
		<path class="st4" d="M218.5,494.5c1.2,0,1.9,0.7,1.9,2.2v4.7c0,1.4-0.6,2-1.9,2h-21.6V579c0,1.4-0.6,2-1.9,2h-5.9
			c-1.4,0-2-0.7-2-2v-75.6h-12.8c-1.3,0-2-0.7-2-2v-4.7c0-1.5,0.7-2.2,2-2.2h12.8v-8.8c0-7.9,1.9-13.9,5.7-18
			c3.8-4.1,9.3-6.2,16.5-6.2c4.4,0,8.1,0.6,11.1,1.7c0.9,0.3,1.4,1,1.4,2l-0.2,4.6c0,1.5-0.7,2-2,1.5c-2.7-0.7-5.7-1-9.1-1
			c-9,0-13.5,5.2-13.5,15.7v8.4H218.5z"/>
		<path class="st4" d="M240,533.9h56.4v-1.4c0-9.6-2.3-17.2-6.9-23c-4.6-5.7-11.4-8.6-20.4-8.6C250.6,501,240.9,512,240,533.9
			 M296.4,568.9c1.2-0.7,2.2-0.3,2.9,1.2l1.7,4.4c0.3,1-0.1,1.8-1.4,2.4c-7.9,4.2-16.8,6.2-26.8,6.2c-13.4,0-23.8-4-31.3-12.1
			c-7.5-8-11.2-19.1-11.2-33.2c0-14.4,3.4-25.6,10.3-33.5c6.9-7.9,16.4-11.9,28.5-11.9c11.8,0,20.9,3.7,27.3,11.2
			c6.4,7.5,9.6,17.4,9.6,29.6v6.9c0,1.3-0.7,2-2.2,2H240c0.5,9.9,3.6,17.7,9.4,23.5c5.8,5.8,13.8,8.7,23.9,8.7
			C281.9,574.5,289.6,572.6,296.4,568.9"/>
		<path class="st5" d="M16.4,439.2v5.3c0,5.1,2.4,8.2,6.4,10.5L44,467.4l21.6-12.5c3.8-2.2,5.8-5.5,5.8-10.4v-5.3
			c0-0.9-0.9-1.5-1.7-1.1l-25.5,13.3l-26.1-13.3c-0.2-0.1-0.4-0.1-0.5-0.1C17,438,16.4,438.5,16.4,439.2"/>
		<path class="st5" d="M69.5,481.1c-1.7,0-3,1.4-3,3l0,60c0,12.7-4.1,19.7-22.6,19.7c-18.5,0-22.6-7.1-22.6-19.7l0-49
			c0-6.4-4.3-11.7-10.2-13.5c-1.3-0.4-2.6-0.6-3.9-0.6H4c-1.7,0-3,1.4-3,3v60c0,24.7,13.4,39,42.8,39.1v0h0.1H44v0
			c29.5-0.1,42.8-14.4,42.8-39.1v-49c0-7.8-6.3-14.1-14.1-14.1H69.5z"/>
		<path class="st4" d="M233.5,626.8v-3.2c0,0,0,0,0,0v-1.5c0-4.5,1.7-6.4,6.9-6.4c5.3,0,6.8,1.9,6.8,6.5v4.7c0,4.5-1.4,6.4-6.8,6.4
			S233.5,631.3,233.5,626.8 M228,620.6L228,620.6v6.3c0,7.7,4.6,11.6,12.4,11.6c8.3,0,12.4-3.8,12.4-11.6v-4.7
			c0-7.8-3.8-11.8-11.3-11.8c-3.8,0-6.4,1.2-7.9,3.5v-10.2c0-1.7-1.2-3.2-2.8-3.6c-0.9-0.3-1.9-0.2-1.9-0.2c-0.5,0-0.8,0.4-0.8,0.8
			V620.6z"/>
		<path class="st4" d="M221.5,615.3c0-1.9-1.3-3.5-3-4c-0.4-0.1-0.8-0.2-1.2-0.2h-0.9c-0.5,0-0.9,0.4-0.9,0.9v22.2
			c0,1.9,1.3,3.5,3,4c0.4,0.1,0.8,0.2,1.2,0.2h0.9c0.5,0,0.9-0.4,0.9-0.9V615.3z"/>
		<path class="st4" d="M156.4,627.7c0,6.8,3.6,10.7,11.7,10.7h0.1c8,0,11.7-3.9,11.7-10.7v-12.6c0-2.1-1.7-3.9-3.8-3.9h-0.9
			c-0.5,0-0.8,0.4-0.8,0.8l0,15.6c0,3.5-1.1,5.4-6.2,5.4c-5,0-6.2-1.9-6.2-5.4l0-12.6c0-1.7-1.2-3.2-2.8-3.7
			c-0.7-0.2-1.9-0.2-1.9-0.2c-0.5,0-0.8,0.4-0.8,0.8V627.7z"/>
		<path class="st4" d="M209,621.1c0-6.8-3.7-10.7-11.7-10.7h-0.1c-8,0-11.7,3.9-11.7,10.7v13.4c0,2.1,1.7,3.9,3.8,3.9h0.9
			c0.5,0,0.8-0.4,0.8-0.8l0-16.4c0-3.5,1.1-5.4,6.2-5.4c5,0,6.2,1.9,6.2,5.4l0,13.4c0,1.7,1.2,3.2,2.8,3.7c0.7,0.2,1.9,0.2,1.9,0.2
			c0.5,0,0.8-0.4,0.8-0.8V621.1z"/>
		<path class="st4" d="M283.1,622.2c0-7.8-3.8-11.8-11.3-11.8c-3.8,0-6.4,1.2-7.9,3.5v-10.2c0-1.7-1.2-3.1-2.8-3.6
			c-0.9-0.3-1.9-0.2-1.9-0.2c-0.5,0-0.8,0.4-0.8,0.8v33.7c0,2.1,1.7,3.9,3.8,3.9h0.8c0.5,0,0.8-0.4,0.8-0.8l0-15.5
			c0-4.5,1.6-6.4,6.9-6.4c5.2,0,6.8,1.9,6.8,6.5v12.4c0,2.1,1.7,3.9,3.9,3.9h0.9c0.5,0,0.8-0.4,0.8-0.8L283.1,622.2z"/>
		<path class="st4" d="M293.3,624.1h-2.6c-0.4,0-0.7-0.5-0.5-0.9l6.5-12.8l-6.5-12.5c-0.2-0.4,0.1-0.9,0.5-0.9h2.6
			c2.4,0,4,1,5.1,2.9l6.2,10.5l-6.1,10.5C297.3,622.9,295.8,624.1,293.3,624.1"/>
	</g>
</g>
</svg>
